Coordinates
version=1
nRows=29
nColumns=22
inDegrees=yes

Units are S.I. units (second, meters, Newtons, ...)
If the header above contains a line with 'inDegrees', this indicates whether rotational values are in degrees (yes) or radians (no).

endheader
time	pelvis_tilt	pelvis_list	pelvis_rotation	pelvis_tx	pelvis_ty	pelvis_tz	hip_flexion_r	hip_adduction_r	hip_rotation_r	knee_angle_r	ankle_angle_r	subtalar_angle_r	hip_flexion_l	hip_adduction_l	hip_rotation_l	knee_angle_l	ankle_angle_l	subtalar_angle_l	lumbar_extension	lumbar_bending	lumbar_rotation
      3.92000000	     -1.35540716	     -1.07448079	    -52.73718361	      1.21916189	      0.82461054	      1.00092313	    -16.47900440	     -5.86177195	     15.89843230	    -32.65062279	      7.82086773	      4.50766390	     33.44442100	     -9.73799209	     -2.44217564	    -32.63220188	      1.70787290	      5.06889773	     -2.26615538	      0.82375745	     21.84060899
      3.93000000	     -1.32680162	     -0.94722153	    -52.67709224	      1.22859794	      0.82577286	      1.00466871	    -15.94026596	     -6.05537236	     15.78828544	    -33.93803699	      5.90196884	      4.66455012	     33.28962581	     -9.32880372	     -2.62896988	    -33.39489426	      2.48820621	      4.83982589	     -2.29238297	      0.67008404	     21.78276528
      3.94000000	     -1.37019194	     -0.82841936	    -52.65773848	      1.23765325	      0.82705484	      1.00828547	    -15.19337311	     -6.16456962	     15.65999589	    -35.39964883	      3.96223922	      4.72111046	     33.06642565	     -9.00863716	     -2.86881539	    -33.95221715	      3.31575942	      4.62665018	     -2.29617075	      0.58689872	     21.75793672
      3.95000000	     -1.46982917	     -0.71476348	    -52.67527279	      1.24628655	      0.82844842	      1.01176914	    -14.24116356	     -6.20620087	     15.48219254	    -37.04065067	      2.00816991	      4.68672562	     32.78291408	     -8.76193249	     -3.14526840	    -34.32152020	      4.15045283	      4.42064792	     -2.28607506	      0.55600322	     21.75549612
      3.96000000	     -1.61690521	     -0.58216309	    -52.72826482	      1.25446970	      0.82991938	      1.01512531	    -13.06768661	     -6.20356990	     15.24678379	    -38.86285599	      0.02610169	      4.56907929	     32.46674887	     -8.56788983	     -3.45346827	    -34.51753559	      4.94082507	      4.21587470	     -2.24558408	      0.55115304	     21.75401157
      3.97000000	     -1.80286412	     -0.42614362	    -52.79193905	      1.26222803	      0.83143328	      1.01834565	    -11.69075221	     -6.16915560	     14.91491222	    -40.84421330	     -1.99110969	      4.36183722	     32.14799071	     -8.40183055	     -3.75660055	    -34.58347307	      5.68728406	      3.98945942	     -2.17337234	      0.56084205	     21.71623040
      3.98000000	     -1.98485631	     -0.24355134	    -52.87643215	      1.26955515	      0.83303730	      1.02146252	    -10.14619396	     -6.15152020	     14.48826641	    -42.95750216	     -4.04859385	      4.18208180	     31.79128887	     -8.23119478	     -4.06337285	    -34.50184906	      6.29271052	      3.80633271	     -2.09242795	      0.54031365	     21.66949376
      3.99000000	     -2.19160554	     -0.04366331	    -52.93232081	      1.27655092	      0.83464134	      1.02442727	     -8.46332320	     -6.11362478	     13.95753329	    -45.14766639	     -6.11639411	      3.92831353	     31.47091367	     -8.05036199	     -4.28979546	    -34.36906223	      6.84355820	      3.55576304	     -1.98737632	      0.52956756	     21.53953739
      4.00000000	     -2.34768025	      0.20008911	    -52.98980661	      1.28322268	      0.83627162	      1.02729173	     -6.67185436	     -6.16155724	     13.32770330	    -47.40562530	     -8.07468208	      3.84620194	     31.12984300	     -7.80213924	     -4.50533516	    -34.14964513	      7.25872733	      3.39128895	     -1.88154093	      0.43664257	     21.38149670
      4.01000000	     -2.51336344	      0.45136055	    -53.00930712	      1.28966221	      0.83788408	      1.03001011	     -4.81298030	     -6.20550467	     12.63081664	    -49.65079914	     -9.84290828	      3.76607667	     30.81764626	     -7.52907371	     -4.63308619	    -33.89802822	      7.60973917	      3.17971063	     -1.76190761	      0.35198910	     21.14725387
      4.02000000	     -2.66880470	      0.70656697	    -53.00038299	      1.29587842	      0.83947964	      1.03261249	     -2.92531934	     -6.25634610	     11.90368548	    -51.85215368	    -11.25879873	      3.69753262	     30.51310524	     -7.22660061	     -4.69571907	    -33.61616702	      7.90176276	      2.94069916	     -1.64447684	      0.25694836	     20.85509146
      4.03000000	     -2.83355341	      0.95327765	    -52.96565597	      1.30186987	      0.84103703	      1.03510531	     -1.03175777	     -6.26918769	     11.19957293	    -53.97314477	    -12.18367546	      3.57675731	     30.22363749	     -6.92377594	     -4.70093480	    -33.31483827	      8.18137047	      2.62933283	     -1.52673490	      0.17916646	     20.50584105
      4.04000000	     -2.97931919	      1.17546798	    -52.90383471	      1.30764567	      0.84261591	      1.03749197	      0.81568990	     -6.25278844	     10.52065083	    -55.97855394	    -12.52919204	      3.42908994	     29.90236249	     -6.60899835	     -4.66041615	    -32.96930560	      8.37651791	      2.34398459	     -1.44450943	      0.10173084	     20.12976612
      4.05000000	     -3.11829776	      1.36732102	    -52.81328048	      1.31319043	      0.84419120	      1.03978310	      2.61008534	     -6.17972581	      9.87822291	    -57.85362053	    -12.26774700	      3.23935783	     29.55781037	     -6.30137136	     -4.57968063	    -32.59058609	      8.50955663	      2.09705071	     -1.39496071	      0.03633239	     19.72993083
      4.06000000	     -3.27833183	      1.52936884	    -52.69688024	      1.31850503	      0.84573096	      1.04199352	      4.35614252	     -6.00515603	      9.30131975	    -59.57881085	    -11.43480332	      2.95156570	     29.20915270	     -6.02695730	     -4.46775876	    -32.18404467	      8.67232892	      1.82501071	     -1.35905985	      0.01289776	     19.28573439
      4.07000000	     -3.46766751	      1.63299438	    -52.55899313	      1.32355028	      0.84724967	      1.04414748	      6.03565131	     -5.70015708	      8.77403731	    -61.14988568	    -10.10620795	      2.52161006	     28.85689694	     -5.82620523	     -4.35069405	    -31.78513306	      8.83368250	      1.47715888	     -1.35739800	      0.05349397	     18.81178003
      4.08000000	     -3.63497105	      1.72685504	    -52.39109102	      1.32840268	      0.84874491	      1.04621155	      7.66760185	     -5.37069819	      8.26440043	    -62.58079226	     -8.45450943	      2.30459327	     28.47334521	     -5.60618603	     -4.19435029	    -31.33239052	      8.94609039	      1.27537470	     -1.37849631	      0.08162965	     18.32068645
      4.09000000	     -3.83154668	      1.78986579	    -52.20955909	      1.33302556	      0.85016752	      1.04820907	      9.27216479	     -4.95468958	      7.77909749	    -63.87135962	     -6.62468088	      2.12328494	     28.11068926	     -5.44407925	     -4.04185327	    -30.89527762	      9.06513511	      1.02650636	     -1.40557727	      0.16036743	     17.81712857
      4.10000000	     -4.02624696	      1.83872077	    -52.01439804	      1.33747512	      0.85152199	      1.05012175	     10.85028513	     -4.51822112	      7.29179949	    -65.03126615	     -4.76704749	      2.07120314	     27.75317531	     -5.29567942	     -3.88486714	    -30.46097454	      9.17270992	      0.77082494	     -1.44235310	      0.25599227	     17.30770927
      4.11000000	     -4.21071709	      1.88960509	    -51.80841747	      1.34178583	      0.85277795	      1.05195606	     12.41558391	     -4.10217788	      6.78761289	    -66.07230655	     -2.99710848	      2.18495014	     27.41057435	     -5.14415901	     -3.72848571	    -30.03943586	      9.26910923	      0.51278885	     -1.47452815	      0.35048544	     16.79341286
      4.12000000	     -4.37777746	      1.94840877	    -51.59917346	      1.34598086	      0.85393742	      1.05371201	     13.96593137	     -3.73172706	      6.26519277	    -66.99062479	     -1.38859924	      2.47257557	     27.08009227	     -4.98269600	     -3.58932076	    -29.62915667	      9.36167254	      0.24478553	     -1.50278533	      0.43728551	     16.26980738
      4.13000000	     -4.50118688	      2.02009959	    -51.37559310	      1.35014809	      0.85502406	      1.05542346	     15.47485916	     -3.46389470	      5.68557426	    -67.77884567	      0.02572936	      2.77786214	     26.72727393	     -4.77664133	     -3.45247664	    -29.20094923	      9.44628347	      0.05236457	     -1.52820785	      0.48969183	     15.74141098
      4.14000000	     -4.60300836	      2.10496881	    -51.16194920	      1.35421146	      0.85600464	      1.05707719	     16.96556473	     -3.25942252	      5.10689003	    -68.44802188	      1.25758168	      3.13937716	     26.39111924	     -4.55958134	     -3.34346807	    -28.79907766	      9.52782831	     -0.16051705	     -1.54671782	      0.52644272	     15.21666094
      4.15000000	     -4.67682114	      2.19001374	    -50.95824730	      1.35821631	      0.85692203	      1.05873037	     18.40199425	     -3.12636456	      4.51245632	    -68.97383473	      2.36377358	      3.47948212	     26.04409206	     -4.33648197	     -3.27302352	    -28.41163463	      9.61430607	     -0.37425719	     -1.56492832	      0.54843774	     14.72514720
      4.16000000	     -4.69926563	      2.26642017	    -50.74783698	      1.36219549	      0.85781492	      1.06034756	     19.75149122	     -3.07468079	      3.91158008	    -69.34977819	      3.36510686	      3.62920637	     25.66120542	     -4.08336851	     -3.22175051	    -28.03134834	      9.69125473	     -0.48857597	     -1.61677343	      0.54328826	     14.21149100
      4.17000000	     -4.73004127	      2.36153575	    -50.56615321	      1.36605389	      0.85862036	      1.06198091	     21.07975722	     -3.03225813	      3.37300591	    -69.57000350	      4.28426434	      3.72859441	     25.29592209	     -3.84164031	     -3.16786152	    -27.64528312	      9.77829748	     -0.63475767	     -1.63128047	      0.53642837	     13.74075093
      4.18000000	     -4.75129479	      2.44056517	    -50.39338373	      1.36986287	      0.85940407	      1.06362731	     22.32212828	     -3.00760294	      2.85917248	    -69.60782650	      5.15069742	      3.72987112	     24.91567190	     -3.61554290	     -3.13394209	    -27.26874319	      9.87342780	     -0.76307082	     -1.65216193	      0.54059501	     13.29932753
      4.19000000	     -4.76676542	      2.49490983	    -50.22481810	      1.37360426	      0.86018323	      1.06529580	     23.46668542	     -2.98010889	      2.38122564	    -69.45875340	      5.96482767	      3.66676442	     24.51966672	     -3.41414238	     -3.11666815	    -26.90555815	      9.97726452	     -0.84867627	     -1.68861923	      0.56040945	     12.87698492
      4.20000000	     -4.79444776	      2.54107665	    -50.06527022	      1.37725103	      0.86093611	      1.06700064	     24.53870376	     -2.92994078	      1.96163270	    -69.12471760	      6.70042533	      3.56837406	     24.12634648	     -3.23804403	     -3.08524570	    -26.54199166	     10.08483300	     -0.92625583	     -1.71186460	      0.59698174	     12.47337598
